<?xml version="1.0" encoding="UTF-8"?>
<svg width="191px" height="60px" viewBox="0 0 191 60" version="1.1" xmlns="http://www.w3.org/2000/svg" xmlns:xlink="http://www.w3.org/1999/xlink">
    <!-- Generator: Sketch 57.1 (83088) - https://sketch.com -->
    <title>Asset 2</title>
    <desc>Created with Sketch.</desc>
    <defs>
        <polygon id="path-1" points="0.0102302968 0.0964222741 20.3224595 0.0964222741 20.3224595 22.548145 0.0102302968 22.548145"></polygon>
        <polygon id="path-3" points="0.18832243 0.254964174 7.30232866 0.254964174 7.30232866 7.36938692 0.18832243 7.36938692"></polygon>
        <polygon id="path-5" points="0.0354034268 0.254964174 17.7151012 0.254964174 17.7151012 39.1775511 0.0354034268 39.1775511"></polygon>
        <polygon id="path-7" points="2.65793458 0.00862772586 0.249609034 12.2013894 39.5643707 4.55216667 40.4798022 0.00862772586"></polygon>
        <linearGradient x1="13.537191%" y1="44.3351541%" x2="52.9461982%" y2="50.4576472%" id="linearGradient-9">
            <stop stop-color="#2B296B" offset="0%"></stop>
            <stop stop-color="#00AEEF" offset="100%"></stop>
        </linearGradient>
    </defs>
    <g id="Home" stroke="none" stroke-width="1" fill="none" fill-rule="evenodd">
        <g id="Asset-2">
            <g id="Group-32" transform="translate(0.000000, 0.042544)">
                <path d="M13.2673003,9.91417928 C14.6893875,9.91417928 15.9130371,10.1069643 16.9403315,10.4898569 C17.9667333,10.8724519 18.7619717,11.411536 19.3248564,12.1085967 C19.8868486,12.80536 20.2028019,13.6502821 20.2724187,14.6445531 C20.3414405,15.6388241 20.1284249,16.7476357 19.6348595,17.9712852 L14.3636165,17.9712852 C13.9878642,17.9712852 13.676671,17.8924456 13.4306321,17.7347665 C13.1828081,17.5764924 13.1090262,17.2899924 13.2080963,16.875564 C13.2280293,16.797617 13.2476648,16.7271076 13.2673003,16.6687961 C13.2869358,16.608402 13.3065713,16.5393802 13.3265044,16.4611357 C13.3854109,16.3825936 13.4157567,16.2930438 13.4157567,16.1945687 C13.5338673,15.7596123 13.5734358,15.3993304 13.5338673,15.1140204 C13.4940012,14.8269254 13.2771181,14.6832291 12.8826227,14.6832291 C12.3884623,14.6832291 11.993967,14.8316855 11.6976492,15.1291933 C11.4013315,15.4255111 11.1142364,15.9196715 10.8384467,16.6125671 C10.6801726,17.027888 10.7596072,17.4140531 11.0761555,17.7686824 C11.3906212,18.1253942 11.8157598,18.5067992 12.3491913,18.9120048 C12.8826227,19.3172104 13.4496726,19.7634721 14.0527209,20.2475173 C14.6542816,20.7321575 15.167185,21.304265 15.5926212,21.9671123 C16.0171648,22.6299597 16.2780791,23.3960422 16.3780417,24.26655 C16.4759218,25.1367603 16.2887894,26.1557245 15.814562,27.3222525 C15.4394047,28.2727899 15.0053408,29.0686232 14.5114779,29.711835 C14.0179125,30.3541544 13.4202193,30.873603 12.719291,31.2680983 C12.0183626,31.6640812 11.2043813,31.945821 10.275562,32.1145079 C9.3476352,32.2823023 8.26173178,32.365902 7.01785171,32.365902 C5.59576449,32.365902 4.37151994,32.1778771 3.34482056,31.8036123 C2.31841869,31.42786 1.5240729,30.8902634 0.960295639,30.1896326 C0.398303427,29.4887042 0.0823501558,28.6387245 0.0127333333,27.6423709 C-0.0562884735,26.6445298 0.156132087,25.5244129 0.649995016,24.2805329 L5.89208224,24.2805329 C6.32614611,24.2805329 6.67155265,24.3938833 6.92830187,24.6205843 C7.1853486,24.8475827 7.1853486,25.2480282 6.92830187,25.8207307 C6.88903084,25.8995702 6.8646352,25.9676995 6.85451994,26.0283911 C6.84470218,26.0867026 6.83994206,26.136684 6.83994206,26.1762525 C6.74116947,26.5707478 6.71647632,26.9072291 6.76586262,27.1836139 C6.81524891,27.4594036 7.02766947,27.5974472 7.40282679,27.5974472 C7.89668972,27.5974472 8.29148255,27.4495858 8.5875028,27.1535656 C8.88382056,26.8572478 9.16942804,26.3633849 9.4467053,25.6722743 C9.60438442,25.278374 9.52465234,24.8984565 9.20959159,24.5316294 C8.89363832,24.1665874 8.4687972,23.7816123 7.93596075,23.3764067 C7.40282679,22.9726886 6.83488442,22.5237494 6.23243115,22.0298864 C5.63027539,21.535726 5.11677695,20.963916 4.69253084,20.3120765 C4.26798723,19.6590469 4.00647788,18.8950469 3.9080028,18.0162089 C3.8086352,17.1373709 3.99636262,16.1157291 4.47088754,14.9506886 C4.84515234,14.0037213 5.27981121,13.207888 5.77397165,12.5667587 C6.26694206,11.9250344 6.8646352,11.4058833 7.56586106,11.0110905 C8.26678941,10.6162977 9.08077072,10.3348553 10.00959,10.1676559 C10.9369218,10.000159 12.0234202,9.91417928 13.2673003,9.91417928" id="Fill-1" fill="#23336F"></path>
                <path d="M31.7203399,16.608402 C31.8771265,16.2537727 31.8821841,15.9470422 31.7343227,15.690888 C31.5867589,15.4347338 31.3347698,15.3059129 30.979248,15.3059129 L29.8240252,15.3059129 L27.6914894,20.5182494 L28.8761654,20.5182494 C29.2316872,20.5182494 29.5821514,20.390916 29.9275579,20.1335718 C30.273857,19.8765251 30.5249536,19.5706871 30.6832277,19.2151653 L31.7203399,16.608402 Z M35.0961607,10.2708911 C35.92591,10.2708911 36.6414162,10.4136949 37.243572,10.6993023 C37.8460252,10.9863974 38.3196576,11.3811902 38.6650642,11.8851684 C39.0110657,12.3873615 39.2032558,12.9764269 39.2428243,13.646712 C39.2820953,14.3181871 39.1443492,15.039346 38.828396,15.8095936 L37.16979,20.1047136 C36.6964551,21.269754 35.8955642,22.3949285 34.7703897,23.4799394 C34.1780517,24.0538319 33.5750034,24.5078288 32.9642199,24.8428226 C32.3513539,25.1793039 31.7090346,25.4357556 31.038452,25.6133678 C30.3672745,25.7906824 29.6806265,25.9046279 28.9796981,25.9531217 C28.2790673,26.003103 27.543628,26.0283911 26.7733804,26.0283911 L25.4997495,26.0283911 L23.0116919,32.040726 L16.4956763,32.040726 L25.2337776,10.2708911 L35.0961607,10.2708911 Z" id="Fill-3" fill="#23336F"></path>
                <path d="M50.8241777,16.608402 C50.9818569,16.2537727 50.986617,15.9470422 50.8390531,15.690888 C50.6905967,15.4347338 50.4392026,15.3059129 50.0833833,15.3059129 C49.5895204,15.3059129 49.2345936,15.3996279 49.0180079,15.5867603 C48.7999347,15.7753802 48.5922743,16.1249519 48.3953241,16.6387478 L44.6928397,25.8207307 C44.3968195,26.5707478 44.3129223,27.054793 44.4408506,27.2722712 C44.5690765,27.4897494 44.8210656,27.5974472 45.1965204,27.5974472 C45.6305843,27.5974472 45.9855111,27.5031372 46.2624908,27.3160048 C46.5391731,27.1288724 46.7756917,26.788226 46.9732369,26.2943631 L50.8241777,16.608402 Z M51.6833802,9.91417928 C53.0060998,9.91417928 54.1312743,10.112022 55.0592011,10.5074098 C55.9871279,10.9019051 56.6886512,11.4847229 57.1622836,12.2552681 C57.6365111,13.0255157 57.8679721,13.9683179 57.8581544,15.0830796 C57.8483366,16.1996263 57.5668942,17.4676045 57.0147198,18.8893942 C56.5003288,20.2719129 55.9921855,21.5610142 55.4890998,22.7552104 C54.9860142,23.9500017 54.4864986,25.1192073 53.9932307,26.2649098 C53.4401637,27.607265 52.8921544,28.6836481 52.3495002,29.4931668 C51.8065484,30.3026855 51.2139129,30.9206092 50.5721886,31.3442603 C49.9307618,31.7696964 49.2093055,32.0442961 48.409902,32.173712 C47.6107961,32.3019379 46.6870344,32.365902 45.6406995,32.365902 L42.6495562,32.365902 C41.7995765,32.365902 40.9912478,32.2433288 40.2207026,31.9958023 C39.450455,31.7494659 38.8283662,31.3293849 38.3547338,30.7370469 C37.8805064,30.1450064 37.6139394,29.3598833 37.5547354,28.3825702 C37.4955313,27.4046621 37.7522805,26.1857727 38.324388,24.7238195 L39.450455,21.9108833 C39.7857463,21.0805391 40.1510858,20.1728428 40.5464737,19.185117 C40.940374,18.1985812 41.3357618,17.2212681 41.7305547,16.2537727 C42.105712,15.3059129 42.5701217,14.4419503 43.1231886,13.6615874 C43.6762556,12.8812245 44.3176824,12.214807 45.048064,11.6626326 C45.7787431,11.1095656 46.5885593,10.6811544 47.4772151,10.3744238 C48.3655734,10.0682883 49.3324737,9.91417928 50.3794036,9.91417928 L51.6833802,9.91417928 Z" id="Fill-5" fill="#23336F"></path>
                <path d="M69.868871,16.608402 C70.0066171,16.2537727 70.002452,15.9470422 69.8539956,15.690888 C69.7058368,15.4347338 69.4642604,15.3059129 69.1286717,15.3059129 L67.9436981,15.3059129 L66.5513617,18.7114846 L67.766681,18.7114846 C68.1013773,18.7114846 68.4420237,18.5841512 68.7874302,18.3265095 C69.1328368,18.0703553 69.3848259,17.7636248 69.5431,17.4089955 L69.868871,16.608402 Z M72.6529489,10.2997494 C73.7790159,10.399712 74.6774894,10.665684 75.348667,11.0997478 C76.0192495,11.5352992 76.5131125,12.0728958 76.8296607,12.7140251 C77.145019,13.3554519 77.2836576,14.0569752 77.2443866,14.8171076 C77.2039255,15.5769425 77.0367262,16.3326123 76.7404084,17.0826294 C76.4244551,17.8728101 76.0492978,18.5487478 75.6146389,19.1119301 C75.1805751,19.6748148 74.7218181,20.1630251 74.2377729,20.5780484 C73.7534302,20.9918818 73.2548072,21.3337182 72.7416062,21.5996902 C72.2287028,21.8656621 71.7348399,22.0986107 71.2606125,22.2964534 C72.1689037,22.5924737 72.732086,23.2237852 72.9492667,24.1918755 C73.1661498,25.1593709 73.0182885,26.2842478 72.5044925,27.5685889 L70.6977277,32.040726 L65.1596202,32.040726 C64.902871,32.040726 64.6508819,31.9371933 64.4039505,31.7298304 C64.157019,31.5221699 64.1126903,31.2103818 64.2709645,30.7965484 L66.2550439,25.909388 C66.3930875,25.5541637 66.374047,25.2480282 66.1961374,24.991874 C66.0179302,24.7342322 65.761181,24.6068989 65.4261872,24.6068989 L64.1519614,24.6068989 L61.1608181,32.040726 L54.6153492,32.040726 L63.3528555,10.2708911 L72.6529489,10.2708911 L72.6529489,10.2997494 Z" id="Fill-7" fill="#23336F"></path>
                <polygon id="Fill-9" fill="#23336F" points="95.1034519 15.3059129 89.8015656 15.3059129 82.9898273 32.040726 76.6517213 32.040726 83.4634597 15.3059129 78.3094347 15.3059129 80.3533132 10.2708911 97.1473304 10.2708911"></polygon>
                <path d="M105.73644,9.91417928 C107.158229,9.91417928 108.382176,10.1069643 109.409173,10.4898569 C110.435873,10.8724519 111.231111,11.411536 111.793698,12.1085967 C112.355988,12.80536 112.671941,13.6502821 112.741558,14.6445531 C112.810282,15.6388241 112.597267,16.7476357 112.103999,17.9712852 L106.832756,17.9712852 C106.457004,17.9712852 106.14581,17.8924456 105.899474,17.7347665 C105.651948,17.5764924 105.578166,17.2899924 105.677236,16.875564 C105.696871,16.797617 105.716804,16.7271076 105.73644,16.6687961 C105.755778,16.608402 105.775711,16.5393802 105.795346,16.4611357 C105.854253,16.3825936 105.884896,16.2930438 105.884896,16.1945687 C106.003007,15.7596123 106.042278,15.3993304 106.003007,15.1140204 C105.962843,14.8269254 105.746257,14.6832291 105.351465,14.6832291 C104.857602,14.6832291 104.462809,14.8316855 104.166789,15.1291933 C103.870471,15.4255111 103.583971,15.9196715 103.307586,16.6125671 C103.149312,17.027888 103.228449,17.4140531 103.545295,17.7686824 C103.859761,18.1253942 104.284602,18.5067992 104.818033,18.9120048 C105.351465,19.3172104 105.918514,19.7634721 106.521563,20.2475173 C107.123124,20.7321575 107.636324,21.304265 108.061761,21.9671123 C108.486007,22.6299597 108.747219,23.3960422 108.847181,24.26655 C108.944764,25.1367603 108.757631,26.1557245 108.283404,27.3222525 C107.908544,28.2727899 107.47448,29.0686232 106.98032,29.711835 C106.487052,30.3541544 105.889061,30.873603 105.188133,31.2680983 C104.487502,31.6640812 103.673223,31.945821 102.744404,32.1145079 C101.816477,32.2823023 100.730871,32.365902 99.4866936,32.365902 C98.0649039,32.365902 96.8406593,32.1778771 95.81396,31.8036123 C94.7872606,31.42786 93.9929148,30.8902634 93.429435,30.1896326 C92.8674428,29.4887042 92.5514896,28.6387245 92.4815752,27.6423709 C92.4125534,26.6445298 92.6252715,25.5244129 93.1191344,24.2805329 L98.3612217,24.2805329 C98.7952855,24.2805329 99.1406921,24.3938833 99.3974413,24.6205843 C99.654488,24.8475827 99.654488,25.2480282 99.3974413,25.8207307 C99.3581702,25.8995702 99.3334771,25.9676995 99.3236593,26.0283911 C99.3138416,26.0867026 99.3090815,26.136684 99.3090815,26.1762525 C99.2103089,26.5707478 99.1856157,26.9072291 99.2347045,27.1836139 C99.2843883,27.4594036 99.4965114,27.5974472 99.8716687,27.5974472 C100.365532,27.5974472 100.760324,27.4495858 101.056642,27.1535656 C101.35296,26.8572478 101.638567,26.3633849 101.915547,25.6722743 C102.073226,25.278374 101.993792,24.8984565 101.678433,24.5316294 C101.362778,24.1665874 100.937639,23.7816123 100.4051,23.3764067 C99.8716687,22.9726886 99.3040238,22.5237494 98.7015706,22.0298864 C98.0994148,21.535726 97.5862139,20.963916 97.1613727,20.3120765 C96.7371266,19.6590469 96.4753198,18.8950469 96.3768447,18.0162089 C96.2777746,17.1373709 96.465502,16.1157291 96.9397294,14.9506886 C97.3139942,14.0037213 97.7486531,13.207888 98.2431111,12.5667587 C98.7360815,11.9250344 99.3334771,11.4058833 100.035,11.0110905 C100.735631,10.6162977 101.54991,10.3348553 102.478729,10.1676559 C103.406061,10.000159 104.492262,9.91417928 105.73644,9.91417928" id="Fill-11" fill="#23336F"></path>
                <path d="M117.040575,28.3088181 L115.559284,32.0407558 L111.501873,32.0407558 C111.28499,32.0407558 111.092205,31.9767916 110.924113,31.8485657 C110.756616,31.7191498 110.74174,31.4885813 110.879784,31.1521 L111.975505,28.3088181 L117.040575,28.3088181 Z" id="Fill-13" fill="#ED1B33"></path>
                <path d="M155.681125,10.2708019 L146.825211,32.0406368 L142.175164,32.0406368 C141.681003,32.0406368 141.251402,31.8731399 140.88636,31.5369561 C140.521021,31.2019623 140.288964,30.7771212 140.191084,30.2627302 L138.709793,21.3485044 L134.355767,32.0406368 L128.017066,32.0406368 L136.872683,10.2708019 L141.523622,10.2708019 C142.016592,10.2708019 142.446193,10.4332411 142.811831,10.7599047 C143.17717,11.0847832 143.409226,11.5149794 143.507701,12.0475184 L144.988993,20.9638268 L149.342721,10.2708019 L155.681125,10.2708019 Z" id="Fill-15" fill="#ED1B33"></path>
                <polygon id="Fill-17" fill="#ED1B33" points="174.341617 10.2708019 172.149282 15.6613455 162.552573 15.6613455 161.01297 19.3046259 169.246796 19.3046259 167.143713 24.5175573 158.969092 24.5175573 155.918149 32.0406368 149.519947 32.0406368 158.376456 10.2708019"></polygon>
                <g id="Group-21" transform="translate(170.471963, 9.817757)">
                    <mask id="mask-2" fill="white">
                        <use xlink:href="#path-1"></use>
                    </mask>
                    <g id="Clip-20"></g>
                    <path d="M13.2882151,6.79064502 C13.4458942,6.43601573 13.4506544,6.1292852 13.302198,5.873131 C13.1546341,5.61697679 12.902645,5.48815592 12.5474207,5.48815592 C12.0535578,5.48815592 11.698036,5.58187087 11.4814503,5.76900327 C11.2636746,5.95762321 11.0563117,6.30719486 10.8593615,6.82099081 L7.1568771,16.0029737 C6.85996433,16.7529908 6.77606713,17.237036 6.90488801,17.4545142 C7.03311386,17.6719924 7.28480545,17.7796902 7.6608553,17.7796902 C8.09402664,17.7796902 8.44925093,17.6853802 8.72593318,17.4982478 C9.00261542,17.3111154 9.23972913,16.970469 9.43757181,16.4766061 L13.2882151,6.79064502 Z M14.1465251,0.0964222741 C15.4692447,0.0964222741 16.5950142,0.294264953 17.5232385,0.689652804 C18.4511653,1.08414813 19.1520936,1.66696589 19.626321,2.43751106 C20.0999534,3.20775872 20.332307,4.1505609 20.3224893,5.26532259 C20.3114815,6.38186931 20.0309316,7.64984751 19.4778646,9.07163723 C18.9640687,10.4541559 18.4562229,11.7432572 17.9531372,12.9374534 C17.449159,14.1322447 16.949941,15.3014503 16.4563755,16.4471528 C15.9042011,17.7895079 15.3561917,18.8658911 14.8135375,19.6754098 C14.2705858,20.4849285 13.6773553,21.1028522 13.036226,21.5265033 C12.3939067,21.9519394 11.6733428,22.2265391 10.8733444,22.355955 C10.073941,22.4841808 9.15107181,22.548145 8.10384439,22.548145 L5.1129986,22.548145 C4.26361386,22.548145 3.45439268,22.4255718 2.68384751,22.1780453 C1.91449237,21.9317089 1.29240358,21.5116279 0.818176168,20.9192899 C0.344543769,20.3272494 0.0770842679,19.5421263 0.0184752336,18.5648132 C-0.0404313084,17.5869051 0.216317913,16.3680157 0.788425389,14.9060625 L1.91449237,12.0931263 C2.24978364,11.2627821 2.61512321,10.3550858 3.00961854,9.36735997 C3.40441137,8.38082414 3.79920421,7.40351106 4.19488956,6.43601573 C4.56945187,5.48815592 5.03356402,4.6241933 5.5869285,3.84383037 C6.13940047,3.06346745 6.78112477,2.39705 7.5121014,1.84487555 C8.24248302,1.29180857 9.05170421,0.863397352 9.94095498,0.556666822 C10.8290157,0.250531308 11.7965111,0.0964222741 12.843441,0.0964222741 L14.1465251,0.0964222741 Z" id="Fill-19" fill="#ED1B33" mask="url(#mask-2)"></path>
                </g>
                <polygon id="Fill-22" fill="#23336F" points="116.658516 39.1774321 123.226893 23.1611003 119.834114 23.1611003 125.01908 10.2688978 131.356293 10.2688978 128.206876 18.1040629 131.643983 18.1040629"></polygon>
                <g id="Group-26" transform="translate(127.035826, 0.000000)">
                    <mask id="mask-4" fill="white">
                        <use xlink:href="#path-3"></use>
                    </mask>
                    <g id="Clip-25"></g>
                    <path d="M7.30232866,3.81178879 C7.30232866,5.77623271 5.70947196,7.36938692 3.74502804,7.36938692 C1.78117913,7.36938692 0.18832243,5.77623271 0.18832243,3.81178879 C0.18832243,1.84793988 1.78117913,0.25478567 3.74502804,0.25478567 C5.70947196,0.25478567 7.30232866,1.84793988 7.30232866,3.81178879" id="Fill-24" fill="#23336F" mask="url(#mask-4)"></path>
                </g>
                <g id="Group-29" transform="translate(116.623053, 0.000000)">
                    <mask id="mask-6" fill="white">
                        <use xlink:href="#path-5"></use>
                    </mask>
                    <g id="Clip-28"></g>
                    <path d="M14.1578006,0.254904673 C12.1939517,0.254904673 10.601095,1.84776137 10.601095,3.81190779 C10.601095,5.77635171 12.1939517,7.36920841 14.1578006,7.36920841 C16.1222445,7.36920841 17.7151012,5.77635171 17.7151012,3.81190779 C17.7151012,1.84776137 16.1222445,0.254904673 14.1578006,0.254904673 L14.1578006,0.254904673 Z M0.0354034268,39.1775511 L6.60378037,23.1612193 L3.21100156,23.1612193 L8.39596729,10.2687193 L14.7334782,10.2687193 L11.5840607,18.1041819 L15.0208707,18.1041819 L0.0354034268,39.1775511 Z" id="Fill-27" fill="#ED1B33" mask="url(#mask-6)"></path>
                </g>
                <polygon id="Fill-30" fill="#2B296B" points="164.276333 59.4271509 126.454466 59.4271509 129.396223 44.6347662 167.21809 44.6347662"></polygon>
            </g>
            <g id="Group-35" transform="translate(126.738318, 44.668712)">
                <mask id="mask-8" fill="white">
                    <use xlink:href="#path-7"></use>
                </mask>
                <g id="Clip-34"></g>
                <polygon id="Fill-33" fill="url(#linearGradient-9)" mask="url(#mask-8)" points="2.65793458 0.00862772586 0.249609034 12.2013894 39.5643707 4.55216667 40.4798022 0.00862772586"></polygon>
            </g>
            <g id="Group-68" transform="translate(23.503115, 44.668712)">
                <polygon id="Stroke-36" stroke="#2B296B" stroke-width="0.5" points="140.773218 14.8009827 0.0734546729 14.8009827 3.01491417 0.00859797508 143.714975 0.00859797508"></polygon>
                <polygon id="Fill-38" fill="#58595B" points="7.61843069 3.95471153 8.72813474 3.95471153 7.45152882 9.95455109 10.9570631 9.95455109 10.7508902 10.9268065 6.13565187 10.9268065"></polygon>
                <polygon id="Fill-40" fill="#58595B" points="15.0813838 3.96458879 16.1910879 3.96458879 14.708309 10.9265685 13.598605 10.9265685"></polygon>
                <polygon id="Fill-42" fill="#58595B" points="18.9698998 3.95471153 20.1385104 3.95471153 20.8944777 9.54190779 24.017417 3.95471153 25.1860276 3.95471153 21.0711974 10.9268065 20.1286927 10.9268065"></polygon>
                <polygon id="Fill-44" fill="#58595B" points="28.0335936 3.95471153 32.5015656 3.95471153 32.2953927 4.92696698 28.9371248 4.92696698 28.5146637 6.9104514 31.4213148 6.9104514 31.2347774 7.82380031 28.3186061 7.82380031 27.8666917 9.95455109 31.3133195 9.95455109 31.1071466 10.9268065 26.5508148 10.9268065"></polygon>
                <polygon id="Fill-46" fill="#58595B" points="41.073955 4.92684798 38.8938179 4.92684798 39.1002883 3.95459252 44.5696715 3.95459252 44.3634986 4.92684798 42.183659 4.92684798 40.9070531 10.9266875 39.8071668 10.9266875"></polygon>
                <polygon id="Fill-48" fill="#58595B" points="47.4763226 3.95471153 48.5860266 3.95471153 47.9672104 6.87118037 51.2273008 6.87118037 51.846117 3.95471153 52.9460033 3.95471153 51.4632245 10.9268065 50.3633382 10.9268065 51.0214254 7.85325358 47.761335 7.85325358 47.1032478 10.9268065 45.9935438 10.9268065"></polygon>
                <polygon id="Fill-50" fill="#58595B" points="56.461266 3.95471153 60.929238 3.95471153 60.7230651 4.92696698 57.3647972 4.92696698 56.9423361 6.9104514 59.8489872 6.9104514 59.6624498 7.82380031 56.7462785 7.82380031 56.2943642 9.95455109 59.7409919 9.95455109 59.534819 10.9268065 54.9784872 10.9268065"></polygon>
                <path d="M71.7798826,10.0725129 C71.0991847,10.6746687 70.4018265,10.9757466 69.6884028,10.9757466 C69.315328,10.9757466 68.9764667,10.8986921 68.6721162,10.745178 C68.3677657,10.5913665 68.1074464,10.3834086 67.8914558,10.1216017 C67.6754651,9.85979486 67.5097533,9.5518743 67.3955103,9.19843505 C67.2806723,8.84499579 67.2235508,8.47162352 67.2235508,8.07891324 C67.2235508,7.53566402 67.3348187,7.01205031 67.557652,6.50807212 C67.7798903,6.00379642 68.0779931,5.55872477 68.4510679,5.17226215 C68.8241427,4.78609704 69.2513639,4.47847399 69.7327315,4.24939299 C70.2138016,4.02001449 70.7130196,3.90547399 71.2300882,3.90547399 C71.8649698,3.90547399 72.3674604,4.04470763 72.7375601,4.32287741 C73.1070648,4.6010472 73.3575664,4.96965935 73.4884698,5.42782134 L72.5263296,6.03652227 C72.4213093,5.65690234 72.2329869,5.37218738 71.9616598,5.18237741 C71.6897377,4.99226994 71.3642642,4.89736495 70.9843467,4.89736495 C70.631205,4.89736495 70.2938312,4.98572477 69.9731178,5.16244439 C69.6524044,5.33916402 69.3724495,5.57330265 69.1335508,5.86456277 C68.894652,6.1561204 68.7048421,6.48665156 68.5641209,6.85615623 C68.4231022,7.22655343 68.3528903,7.60438832 68.3528903,7.99055343 C68.3528903,8.26574813 68.3903763,8.5242824 68.4659433,8.76615623 C68.5409153,9.00862508 68.6492081,9.21985561 68.7899293,9.39955031 C68.9306505,9.57984003 69.1023125,9.72204875 69.3055103,9.827069 C69.5081131,9.93149424 69.734219,9.98385561 69.9829355,9.98385561 C70.6639308,9.98385561 71.3446287,9.64023411 72.0253265,8.95269361 L72.1827081,8.21665935 L70.8079246,8.21665935 L70.9843467,7.4011905 L73.2727766,7.4011905 L72.5263296,10.9266578 L71.6031629,10.9266578 L71.7798826,10.0725129 Z" id="Fill-52" fill="#58595B"></path>
                <path d="M79.7730838,8.21657009 L79.3803735,5.22155919 L77.6717863,8.21657009 L79.7730838,8.21657009 Z M79.1545651,3.95477103 L80.1265231,3.95477103 L81.2460449,10.9265685 L80.087252,10.9265685 L79.8123548,9.03144393 L77.3082318,9.03144393 L76.2377988,10.9265685 L75.0793034,10.9265685 L79.1545651,3.95477103 Z" id="Fill-54" fill="#58595B"></path>
                <polygon id="Fill-56" fill="#58595B" points="85.5372972 3.95471153 86.715428 3.95471153 87.9527629 8.21651059 91.0069779 3.95471153 92.175291 3.95471153 90.6925121 10.9268065 89.5831056 10.9268065 90.6532411 5.90874268 87.9429452 9.70910717 87.3342442 9.70910717 86.2343579 5.90874268 85.1639249 10.9268065 84.0545184 10.9268065"></polygon>
                <polygon id="Fill-58" fill="#58595B" points="95.6909107 3.95471153 100.158883 3.95471153 99.9524123 4.92696698 96.5941444 4.92696698 96.1719808 6.9104514 99.0786319 6.9104514 98.8920945 7.82380031 95.9756257 7.82380031 95.5237114 9.95455109 98.9703391 9.95455109 98.7644637 10.9268065 94.2081319 10.9268065"></polygon>
                <polygon id="Fill-60" fill="#FFFFFF" points="111.52853 3.95471153 113.443587 3.95471153 112.314248 9.25719283 115.250352 9.25719283 114.896615 10.9268065 110.046048 10.9268065"></polygon>
                <polygon id="Fill-62" fill="#FFFFFF" points="119.030724 3.95471153 120.945782 3.95471153 119.462705 10.9268065 117.548243 10.9268065"></polygon>
                <polygon id="Fill-64" fill="#FFFFFF" points="123.400667 3.95471153 125.423423 3.95471153 125.659049 8.52086106 127.81955 3.95471153 129.832488 3.95471153 125.944061 10.9268065 124.35299 10.9268065"></polygon>
                <polygon id="Fill-66" fill="#FFFFFF" points="132.365707 3.95471153 137.020514 3.95471153 136.666777 5.62402773 133.927028 5.62402773 133.720855 6.60610093 136.058076 6.60610093 135.723975 8.15760405 133.387052 8.15760405 133.151425 9.25719283 135.979237 9.25719283 135.625798 10.9268065 130.883226 10.9268065"></polygon>
            </g>
        </g>
    </g>
</svg>